<svg width="161" height="28" viewBox="0 0 161 28" fill="none" xmlns="http://www.w3.org/2000/svg">
<path fill-rule="evenodd" clip-rule="evenodd" d="M26.9188 6.31359C28.7338 6.86518 28.7338 9.43471 26.9188 9.9863L8.25877 15.6575C7.89492 15.7681 7.5024 15.7669 7.13854 15.6563C5.32363 15.1047 5.28019 12.522 7.0951 11.9704L13.6233 9.9863C15.4382 9.43471 15.4382 6.86518 13.6233 6.31359L7.09511 4.32952C5.28019 3.77793 5.32363 1.1952 7.13855 0.643606C7.5024 0.533023 7.89492 0.531804 8.25878 0.642387L26.9188 6.31359Z" fill="url(#paint0_linear_1435_1513)"/>
<path fill-rule="evenodd" clip-rule="evenodd" d="M26.9188 17.6163C28.7338 18.1679 28.7338 20.7374 26.9188 21.289L8.25877 26.9602C7.89492 27.0708 7.5024 27.0696 7.13854 26.959C5.32363 26.4074 5.28019 23.8247 7.0951 23.2731L13.6233 21.289C15.4382 20.7374 15.4382 18.1679 13.6233 17.6163L7.09511 15.6323C5.28019 15.0807 5.32363 12.4979 7.13855 11.9463C7.5024 11.8358 7.89492 11.8345 8.25878 11.9451L26.9188 17.6163Z" fill="url(#paint1_linear_1435_1513)"/>
<path fill-rule="evenodd" clip-rule="evenodd" d="M1.92124 9.98622C0.106327 9.43462 0.106335 6.86509 1.92125 6.3135L20.5813 0.642306C20.9452 0.531722 21.3377 0.532942 21.7015 0.643525C23.5165 1.19512 23.5599 3.77785 21.745 4.32944L15.2168 6.3135C13.4019 6.8651 13.4019 9.43462 15.2168 9.98622L21.745 11.9703C23.5599 12.5219 23.5165 15.1046 21.7015 15.6562C21.3377 15.7668 20.9452 15.768 20.5813 15.6574L1.92124 9.98622Z" fill="url(#paint2_linear_1435_1513)"/>
<path fill-rule="evenodd" clip-rule="evenodd" d="M1.92124 21.2625C0.106327 20.7109 0.106335 18.1413 1.92125 17.5897L20.5813 11.9186C20.9452 11.808 21.3377 11.8092 21.7015 11.9198C23.5165 12.4714 23.5599 15.0541 21.745 15.6057L15.2168 17.5897C13.4019 18.1413 13.4019 20.7109 15.2168 21.2625L21.745 23.2465C23.5599 23.7981 23.5165 26.3809 21.7015 26.9324C21.3377 27.043 20.9452 27.0442 20.5813 26.9337L1.92124 21.2625Z" fill="url(#paint3_linear_1435_1513)"/>
<path d="M47.603 19.7673C46.9408 20.1315 46.1461 20.2971 45.2521 20.2971C44.4905 20.2971 43.7621 20.1647 43.133 19.8667C42.4708 19.6018 41.941 19.2044 41.4774 18.7078C41.0139 18.2111 40.6497 17.6151 40.3848 16.9198C40.1199 16.2244 39.9874 15.4298 39.9874 14.602C39.9874 13.7742 40.1199 13.0127 40.3848 12.3173C40.6497 11.622 41.0139 11.026 41.4774 10.5293C41.941 10.0327 42.5039 9.60222 43.1661 9.33733C43.8283 9.03933 44.5568 8.90689 45.3514 8.90689C46.0799 8.90689 46.7752 9.03933 47.4705 9.33733C48.1659 9.60222 48.497 9.99956 48.497 9.99956C48.8281 10.3638 49.391 10.3638 49.7552 9.99956L51.5432 8.21156C51.8743 7.88045 51.8743 7.31756 51.5101 6.98645C51.5101 6.98645 50.3512 5.99311 49.093 5.52956C47.8348 5.066 46.5103 4.83423 45.219 4.83423C43.7952 4.83423 42.4708 5.066 41.2457 5.52956C40.0206 5.99311 38.9279 6.65534 38.0339 7.48312C37.1068 8.344 36.4114 9.37045 35.8817 10.5956C35.3519 11.8207 35.1201 13.1451 35.1201 14.6682C35.1201 16.1251 35.385 17.4496 35.8817 18.6747C36.3783 19.8998 37.1068 20.9262 38.0008 21.7871C38.8948 22.648 39.9543 23.3433 41.1794 23.8069C42.4046 24.2704 43.729 24.5353 45.1859 24.5353C46.7752 24.5353 48.1659 24.2704 49.3579 23.7075C49.9208 23.4427 50.1525 23.3102 50.1525 23.3102C50.583 23.0453 50.7154 22.4824 50.4505 22.052L49.391 19.5355C49.2585 19.072 48.8612 18.9727 48.5301 19.3038C48.4639 19.2044 48.199 19.4362 47.603 19.7673Z" fill="white"/>
<path d="M102.733 19.7673C102.071 20.1315 101.276 20.2971 100.382 20.2971C99.6204 20.2971 98.892 20.1647 98.2629 19.8667C97.6006 19.6018 97.0709 19.2044 96.6073 18.7078C96.1438 18.2111 95.7795 17.6151 95.5147 16.9198C95.2498 16.2244 95.1173 15.4298 95.1173 14.602C95.1173 13.7742 95.2498 13.0127 95.5147 12.3173C95.7795 11.622 96.1438 11.026 96.6073 10.5293C97.0709 10.0327 97.6338 9.60222 98.296 9.33733C98.9582 9.03933 99.6867 8.90689 100.481 8.90689C101.21 8.90689 101.905 9.03933 102.6 9.33733C103.296 9.60222 103.627 9.99956 103.627 9.99956C103.958 10.3638 104.521 10.3638 104.885 9.99956L106.673 8.21156C107.004 7.88045 107.004 7.31756 106.64 6.98645C106.64 6.98645 105.481 5.99311 104.223 5.52956C102.965 5.066 101.64 4.83423 100.349 4.83423C98.9251 4.83423 97.6007 5.066 96.3755 5.52956C95.1504 5.99311 94.0578 6.65534 93.1638 7.48312C92.2367 8.344 91.5413 9.37045 91.0116 10.5956C90.4818 11.8207 90.25 13.1451 90.25 14.6682C90.25 16.1251 90.5149 17.4496 91.0116 18.6747C91.5082 19.8998 92.2367 20.9262 93.1307 21.7871C94.0247 22.648 95.0842 23.3433 96.3093 23.8069C97.5344 24.2704 98.8589 24.5353 100.316 24.5353C101.905 24.5353 103.296 24.2704 104.488 23.7075C105.051 23.4427 105.282 23.3102 105.282 23.3102C105.713 23.0453 105.845 22.4824 105.58 22.052L104.521 19.5355C104.388 19.072 103.991 18.9727 103.66 19.3038C103.594 19.2044 103.362 19.4362 102.733 19.7673Z" fill="white"/>
<path d="M63.695 12.218C63.0327 11.622 62.2381 11.1584 61.3772 10.8604C60.4832 10.5293 59.5561 10.3969 58.5628 10.3969C57.5694 10.3969 56.6423 10.5624 55.7483 10.8604C54.8543 11.1915 54.0928 11.622 53.4305 12.218C52.7683 12.814 52.2385 13.5424 51.8743 14.4033C51.477 15.2642 51.2783 16.2244 51.2783 17.3171C51.2783 18.3766 51.477 19.37 51.8743 20.2308C52.2716 21.0917 52.7683 21.8533 53.4305 22.4493C54.0928 23.0453 54.8543 23.5419 55.7483 23.8731C56.6423 24.2042 57.5694 24.3697 58.5628 24.3697C59.5561 24.3697 60.5163 24.2042 61.3772 23.8731C62.2712 23.5419 63.0327 23.0784 63.695 22.4493C64.3572 21.8533 64.887 21.0917 65.2843 20.2308C65.6816 19.37 65.8803 18.3766 65.8803 17.3171C65.8803 16.2575 65.6816 15.2642 65.2843 14.4033C64.887 13.5424 64.3572 12.814 63.695 12.218ZM61.4765 18.5422C61.3441 18.9395 61.1454 19.3037 60.8805 19.6348C60.6156 19.966 60.2845 20.2308 59.9203 20.3964C59.523 20.5951 59.0925 20.6944 58.5628 20.6944C58.0661 20.6944 57.6025 20.5951 57.2052 20.3964C56.8079 20.1977 56.5099 19.9328 56.245 19.6348C55.9801 19.3037 55.7814 18.9395 55.649 18.5422C55.5165 18.1448 55.4503 17.7144 55.4503 17.3171C55.4503 16.8866 55.5165 16.4893 55.649 16.092C55.7814 15.6946 55.9801 15.3304 56.245 15.0324C56.5099 14.7344 56.8079 14.4695 57.2052 14.2708C57.6025 14.0722 58.033 13.9728 58.5628 13.9728C59.0594 13.9728 59.523 14.0722 59.9203 14.2708C60.3176 14.4695 60.6156 14.7013 60.8805 15.0324C61.1454 15.3304 61.3441 15.6946 61.4765 16.092C61.609 16.4893 61.6752 16.9197 61.6752 17.3171C61.6752 17.7475 61.609 18.1448 61.4765 18.5422Z" fill="white"/>
<path d="M72.1052 4.93349C71.8734 4.73483 71.6085 4.56927 71.3105 4.43683C71.0125 4.30438 70.6814 4.23816 70.3503 4.23816C69.9861 4.23816 69.6881 4.30438 69.3901 4.43683C69.0921 4.56927 68.8272 4.73482 68.5954 4.9666C68.3636 5.16527 68.1981 5.43016 68.0656 5.72816C67.9332 6.02616 67.8669 6.32416 67.8669 6.62216C67.8669 7.28438 68.0987 7.81416 68.5623 8.31082C69.0258 8.77438 69.6218 9.00615 70.3172 9.00615C70.6483 9.00615 70.9794 8.93993 71.2774 8.80749C71.5754 8.67505 71.8403 8.50949 72.072 8.31082C72.3038 8.11216 72.4694 7.84727 72.6018 7.54927C72.7343 7.25127 72.8005 6.95327 72.8005 6.62216C72.8005 6.29105 72.7343 5.99304 72.6018 5.69504C72.5025 5.39705 72.3369 5.13216 72.1052 4.93349Z" fill="white"/>
<path d="M68.198 23.0453C68.198 23.542 68.5953 23.9393 69.092 23.9393H71.6415C72.1382 23.9393 72.5355 23.542 72.5355 23.0453V11.6882C72.5355 11.1915 72.1382 10.7942 71.6415 10.7942H69.092C68.5953 10.7942 68.198 11.1915 68.198 11.6882V23.0453Z" fill="white"/>
<path d="M86.9389 12.1518C86.5747 11.6551 86.078 11.2578 85.4489 10.9267C84.8198 10.5956 84.0913 10.4631 83.1973 10.4631C82.7338 10.4631 82.3033 10.5294 81.906 10.6618C81.5087 10.7942 81.1444 10.9267 80.7802 11.1254C80.4491 11.324 80.1511 11.5558 79.8862 11.8207C79.6213 12.0856 79.6213 12.0856 79.6213 12.0856C79.4227 12.3836 79.2571 12.5491 79.224 12.4167C79.224 12.2842 79.1909 11.8869 79.1909 11.5227C79.1909 11.1585 78.7936 10.8274 78.2969 10.8274H75.946C75.4493 10.8274 75.052 11.2247 75.052 11.7214V23.0453C75.052 23.542 75.4493 23.9393 75.946 23.9393H78.4956C78.9922 23.9393 79.3896 23.542 79.3896 23.0453V17.7145C79.3896 17.2178 79.4227 16.4894 79.4227 16.092C79.4227 16.092 79.4227 16.092 79.522 15.7609C79.6213 15.4298 79.7538 15.1318 79.9524 14.8669C80.1511 14.602 80.3829 14.4034 80.6809 14.2378C80.9789 14.0722 81.31 14.006 81.7073 14.006C82.1047 14.006 82.4027 14.0722 82.6675 14.2378C82.9324 14.4034 83.1311 14.602 83.2636 14.8338C83.396 15.0987 83.4953 15.3967 83.5615 15.7278C83.6278 16.0589 83.6278 16.0589 83.6278 16.0589C83.6609 16.4562 83.6609 17.1847 83.6609 17.6814V23.0785C83.6609 23.5751 84.0582 23.9725 84.5549 23.9725H87.1044C87.6011 23.9725 87.9984 23.5751 87.9984 23.0785V16.7542C87.9984 16.2576 87.9653 15.4629 87.9322 14.9662C87.9322 14.9662 87.8991 14.5689 87.7335 13.9067C87.6011 13.2114 87.3362 12.6485 86.9389 12.1518Z" fill="white"/>
<path d="M120.613 14.4033C120.216 13.5424 119.686 12.814 119.024 12.218C118.361 11.622 117.567 11.1584 116.706 10.8604C115.812 10.5293 114.885 10.3969 113.891 10.3969C112.898 10.3969 111.971 10.5624 111.077 10.8604C110.183 11.1915 109.421 11.622 108.759 12.218C108.097 12.814 107.567 13.5424 107.203 14.4033C106.806 15.2642 106.607 16.2244 106.607 17.3171C106.607 18.3766 106.806 19.37 107.203 20.2308C107.6 21.0917 108.097 21.8533 108.759 22.4493C109.421 23.0453 110.183 23.5419 111.077 23.8731C111.971 24.2042 112.898 24.3697 113.891 24.3697C114.885 24.3697 115.845 24.2042 116.706 23.8731C117.335 23.6413 117.633 23.4426 117.633 23.4426C118.063 23.1777 118.759 23.1446 119.189 23.3764L120.381 23.9724C120.812 24.2042 121.176 23.9724 121.176 23.4757V17.88C121.176 17.3833 121.176 16.986 121.176 16.986C121.176 16.986 121.11 16.5886 121.076 16.092C121.076 16.1251 120.977 15.198 120.613 14.4033ZM116.838 18.5422C116.706 18.9395 116.507 19.3037 116.242 19.6348C115.977 19.966 115.646 20.2308 115.282 20.3964C114.885 20.5951 114.454 20.6944 113.924 20.6944C113.428 20.6944 112.964 20.5951 112.567 20.3964C112.17 20.1977 111.872 19.9328 111.607 19.6348C111.342 19.3037 111.143 18.9395 111.011 18.5422C110.878 18.1448 110.812 17.7144 110.812 17.3171C110.812 16.8866 110.878 16.4893 111.011 16.092C111.143 15.6946 111.342 15.3304 111.607 15.0324C111.872 14.7344 112.17 14.4695 112.567 14.2708C112.964 14.0722 113.395 13.9728 113.924 13.9728C114.421 13.9728 114.885 14.0722 115.282 14.2708C115.679 14.4695 115.977 14.7013 116.242 15.0324C116.507 15.3304 116.706 15.6946 116.838 16.092C116.971 16.4893 117.037 16.9197 117.037 17.3171C117.037 17.7475 116.971 18.1448 116.838 18.5422Z" fill="white"/>
<path d="M127.301 8.24459C127.301 7.74792 126.904 7.35059 126.407 7.35059H123.957C123.46 7.35059 123.063 7.74792 123.063 8.24459V9.90014C123.063 10.3968 123.063 11.1915 123.063 11.6881V13.1119C123.063 13.6086 123.063 14.4032 123.063 14.8999V18.6746C123.063 19.1712 123.096 19.9659 123.129 20.4626C123.129 20.4626 123.162 20.9261 123.328 21.489C123.493 22.0519 123.758 22.5486 124.089 22.979C124.454 23.4095 124.917 23.7075 125.513 23.9392C126.109 24.171 126.838 24.2704 127.732 24.2704C128.195 24.2704 128.659 24.2372 129.089 24.1379C129.553 24.0717 129.553 24.0717 129.553 24.0717C129.917 23.9723 130.215 23.4757 130.215 22.979L130.182 21.5884C130.182 21.0917 130.016 20.7606 129.818 20.8268C129.818 20.8268 129.818 20.8268 129.586 20.8599C129.354 20.893 129.122 20.9261 128.924 20.9261C128.295 20.9261 127.897 20.7606 127.632 20.4626C127.401 20.1646 127.367 19.9659 127.367 19.9659C127.301 19.4692 127.268 18.6746 127.268 18.1779V14.933C127.268 14.4364 127.665 14.039 128.162 14.039H129.453C129.95 14.039 130.347 13.6417 130.347 13.145V11.6881C130.347 11.1915 129.95 10.7941 129.453 10.7941H128.162C127.665 10.7941 127.268 10.3968 127.268 9.90014V8.24459H127.301Z" fill="white"/>
<path d="M137.003 14.9993C137.268 14.7013 137.599 14.4364 137.963 14.2709C138.327 14.0722 138.758 14.006 139.188 14.006C139.619 14.006 140.049 14.1053 140.48 14.304C140.91 14.5027 140.91 14.5027 140.91 14.5027C141.241 14.8007 141.738 14.7675 142.069 14.4033L143.393 12.8471C143.724 12.4829 143.724 11.9531 143.393 11.6551C143.393 11.6551 143.393 11.6551 143.029 11.4233C142.665 11.1915 142.267 11.026 141.837 10.8604C141.407 10.6949 140.943 10.5955 140.48 10.4962C140.016 10.3969 139.552 10.3638 139.056 10.3638C138.029 10.3638 137.069 10.5293 136.175 10.8604C135.281 11.1915 134.486 11.6551 133.824 12.2511C133.162 12.8471 132.632 13.5755 132.268 14.4364C131.904 15.2973 131.705 16.2575 131.705 17.3502C131.705 18.4429 131.904 19.4031 132.268 20.264C132.632 21.1249 133.162 21.8533 133.824 22.4493C134.486 23.0453 135.281 23.5089 136.175 23.84C137.069 24.1711 138.029 24.3035 139.089 24.3035C140.049 24.3035 140.976 24.138 141.837 23.84C142.698 23.542 143.228 23.1446 143.228 23.1446C143.625 22.8467 143.691 22.2838 143.36 21.9195L142.102 20.3633C141.804 19.9991 141.274 19.9329 140.91 20.2309C140.91 20.2309 140.91 20.2309 140.48 20.3964C140.049 20.562 139.619 20.6613 139.188 20.6613C138.725 20.6613 138.294 20.562 137.897 20.3964C137.533 20.2309 137.202 19.966 136.937 19.668C136.672 19.37 136.473 19.0058 136.308 18.6084C136.175 18.2111 136.109 17.7807 136.109 17.3171C136.109 16.8535 136.175 16.4231 136.341 16.0258C136.539 15.6615 136.738 15.3304 137.003 14.9993Z" fill="white"/>
<path d="M158.392 13.8735C158.227 13.2112 157.962 12.6483 157.565 12.1517C157.2 11.655 156.704 11.2577 156.075 10.9266C155.479 10.5955 154.717 10.463 153.823 10.463C152.896 10.463 152.134 10.6617 151.472 11.0921C150.81 11.4894 150.611 11.7875 150.611 11.7875C150.313 12.1848 150.048 12.4828 150.048 12.4828C150.048 12.4828 150.015 12.0854 150.015 11.5888V4.90035C150.015 4.40368 149.618 4.00635 149.121 4.00635H146.572C146.075 4.00635 145.678 4.40368 145.678 4.90035V23.0452C145.678 23.5419 146.075 23.9392 146.572 23.9392H149.121C149.618 23.9392 150.015 23.5419 150.015 23.0452V17.7474C150.015 17.2508 150.082 16.4561 150.148 15.9594C150.148 15.9594 150.214 15.3966 150.644 14.8668C151.042 14.337 151.638 14.0721 152.399 14.0721C152.797 14.0721 153.095 14.1383 153.36 14.3039C153.591 14.4694 153.79 14.6681 153.955 14.8999C154.121 15.1648 154.22 15.4628 154.254 15.7939C154.32 16.125 154.32 16.125 154.32 16.125C154.32 16.5223 154.353 17.2508 154.353 17.7474V23.0783C154.353 23.575 154.75 23.9723 155.247 23.9723H157.796C158.293 23.9723 158.69 23.575 158.69 23.0783V16.7541C158.69 16.2574 158.657 15.4628 158.624 14.9661C158.591 14.933 158.558 14.5026 158.392 13.8735Z" fill="white"/>
<defs>
<linearGradient id="paint0_linear_1435_1513" x1="32.961" y1="8.14995" x2="1.05286" y2="8.14994" gradientUnits="userSpaceOnUse">
<stop stop-color="#2454FF"/>
<stop offset="1" stop-color="#0036F5" stop-opacity="0.94"/>
</linearGradient>
<linearGradient id="paint1_linear_1435_1513" x1="32.961" y1="19.4527" x2="1.05286" y2="19.4527" gradientUnits="userSpaceOnUse">
<stop stop-color="#2454FF"/>
<stop offset="1" stop-color="#2454FF" stop-opacity="0.5"/>
</linearGradient>
<linearGradient id="paint2_linear_1435_1513" x1="-4.12093" y1="8.14986" x2="27.7872" y2="8.14986" gradientUnits="userSpaceOnUse">
<stop stop-color="#B9D700"/>
<stop offset="1" stop-color="#DBFF00" stop-opacity="0.42"/>
</linearGradient>
<linearGradient id="paint3_linear_1435_1513" x1="-4.12093" y1="19.4261" x2="27.7872" y2="19.4261" gradientUnits="userSpaceOnUse">
<stop stop-color="#CDEF01"/>
<stop offset="1" stop-color="#CDEF01" stop-opacity="0"/>
</linearGradient>
</defs>
</svg>
