<?xml version="1.0" encoding="utf-8"?>
<!-- Generator: Adobe Illustrator 26.3.1, SVG Export Plug-In . SVG Version: 6.00 Build 0)  -->
<svg version="1.1" id="图层_1" xmlns="http://www.w3.org/2000/svg" xmlns:xlink="http://www.w3.org/1999/xlink" x="0px" y="0px"
	 viewBox="0 0 161 28" style="enable-background:new 0 0 161 28;" xml:space="preserve">
<style type="text/css">
	.st0{fill:#FFFFFF;}
	.st1{fill:#0555FC;}
	.st2{fill-rule:evenodd;clip-rule:evenodd;fill:#0555FC;}
	.st3{fill-rule:evenodd;clip-rule:evenodd;fill:#BEE800;}
	.st4{fill:#C5E604;}
</style>
<g>
	<g>
		<g>
			<g>
				<g>
					<g>
						<g>
							<g>
								<path class="st0" d="M50.2,19.4c-0.6,0.4-1.4,0.5-2.3,0.5c-0.7,0-1.5-0.1-2.1-0.4c-0.6-0.3-1.2-0.6-1.6-1.1
									s-0.8-1.1-1.1-1.8c-0.3-0.7-0.4-1.5-0.4-2.3s0.1-1.6,0.4-2.2c0.3-0.7,0.6-1.3,1.1-1.8s1-0.9,1.7-1.2
									c0.6-0.3,1.4-0.4,2.1-0.4c0.7,0,1.4,0.1,2.1,0.4c0.7,0.3,1,0.6,1,0.6c0.3,0.4,0.9,0.4,1.2,0l1.8-1.8c0.3-0.3,0.3-0.9,0-1.2
									c0,0-1.1-1-2.4-1.4c-1.2-0.5-2.5-0.7-3.8-0.7c-1.4,0-2.7,0.2-3.9,0.7c-1.2,0.5-2.3,1.1-3.2,1.9c-0.9,0.8-1.6,1.9-2.1,3.1
									c-0.5,1.2-0.7,2.5-0.7,4c0,1.4,0.3,2.7,0.7,3.9c0.5,1.2,1.2,2.2,2.1,3.1c0.9,0.8,1.9,1.5,3.1,2c1.2,0.5,2.5,0.7,3.9,0.7
									c1.6,0,2.9-0.3,4.1-0.8c0.6-0.3,0.8-0.4,0.8-0.4c0.4-0.3,0.6-0.8,0.3-1.2l-1-2.5c-0.1-0.5-0.5-0.6-0.8-0.2
									C51.1,18.8,50.8,19.1,50.2,19.4z"/>
							</g>
							<g>
								<path class="st0" d="M104.3,19.4c-0.6,0.4-1.4,0.5-2.3,0.5c-0.7,0-1.5-0.1-2.1-0.4c-0.6-0.3-1.2-0.6-1.6-1.1
									c-0.5-0.5-0.8-1.1-1.1-1.8c-0.3-0.7-0.4-1.5-0.4-2.3s0.1-1.6,0.4-2.2c0.3-0.7,0.6-1.3,1.1-1.8c0.5-0.5,1-0.9,1.7-1.2
									c0.6-0.3,1.4-0.4,2.1-0.4c0.7,0,1.4,0.1,2.1,0.4c0.7,0.3,1,0.6,1,0.6c0.3,0.4,0.9,0.4,1.2,0l1.8-1.8c0.3-0.3,0.3-0.9,0-1.2
									c0,0-1.1-1-2.4-1.4s-2.5-0.7-3.8-0.7c-1.4,0-2.7,0.2-3.9,0.7c-1.2,0.5-2.3,1.1-3.2,1.9c-0.9,0.8-1.6,1.9-2.1,3.1
									s-0.7,2.5-0.7,4c0,1.4,0.3,2.7,0.7,3.9c0.5,1.2,1.2,2.2,2.1,3.1c0.9,0.8,1.9,1.5,3.1,2c1.2,0.5,2.5,0.7,3.9,0.7
									c1.6,0,2.9-0.3,4.1-0.8c0.6-0.3,0.8-0.4,0.8-0.4c0.4-0.3,0.6-0.8,0.3-1.2l-1-2.5c-0.1-0.5-0.5-0.6-0.8-0.2
									C105.2,18.8,104.9,19.1,104.3,19.4z"/>
							</g>
							<g>
								<path class="st0" d="M66,12c-0.6-0.6-1.4-1-2.3-1.3c-0.9-0.3-1.8-0.5-2.8-0.5s-1.9,0.2-2.8,0.5C57.4,11,56.6,11.4,56,12
									c-0.6,0.6-1.2,1.3-1.5,2.1C54,15,53.8,15.9,53.8,17c0,1,0.2,2,0.6,2.9c0.4,0.8,0.9,1.6,1.5,2.2c0.6,0.6,1.4,1.1,2.3,1.4
									s1.8,0.5,2.8,0.5s1.9-0.2,2.8-0.5c0.9-0.3,1.6-0.8,2.3-1.4c0.6-0.6,1.2-1.3,1.6-2.2c0.4-0.8,0.6-1.8,0.6-2.9
									c0-1-0.2-2-0.6-2.9C67.2,13.3,66.7,12.6,66,12z M63.9,18.2c-0.1,0.4-0.3,0.7-0.6,1.1c-0.3,0.3-0.6,0.6-0.9,0.7
									c-0.4,0.2-0.8,0.3-1.3,0.3c-0.5,0-0.9-0.1-1.3-0.3c-0.4-0.2-0.7-0.5-0.9-0.7c-0.3-0.3-0.5-0.7-0.6-1.1
									c-0.1-0.4-0.2-0.8-0.2-1.2c0-0.4,0.1-0.8,0.2-1.2c0.1-0.4,0.3-0.7,0.6-1c0.3-0.3,0.6-0.6,0.9-0.7c0.4-0.2,0.8-0.3,1.3-0.3
									c0.5,0,0.9,0.1,1.3,0.3c0.4,0.2,0.7,0.4,0.9,0.7c0.3,0.3,0.5,0.6,0.6,1C64,16.2,64,16.6,64,17S64,17.8,63.9,18.2z"/>
							</g>
							<g>
								<path class="st0" d="M74.3,4.8c-0.2-0.2-0.5-0.4-0.8-0.5c-0.3-0.1-0.6-0.2-0.9-0.2c-0.4,0-0.6,0.1-0.9,0.2
									c-0.3,0.1-0.6,0.3-0.8,0.5c-0.2,0.2-0.4,0.5-0.5,0.7c-0.1,0.3-0.2,0.6-0.2,0.9c0,0.6,0.2,1.2,0.7,1.7c0.5,0.5,1,0.7,1.7,0.7
									c0.3,0,0.6-0.1,0.9-0.2c0.3-0.1,0.6-0.3,0.8-0.5c0.2-0.2,0.4-0.5,0.5-0.7C74.9,7.1,75,6.8,75,6.5s-0.1-0.6-0.2-0.9
									C74.7,5.3,74.5,5.1,74.3,4.8z"/>
							</g>
							<g>
								<path class="st0" d="M70.4,22.6c0,0.5,0.4,0.9,0.9,0.9h2.5c0.5,0,0.9-0.4,0.9-0.9V11.5c0-0.5-0.4-0.9-0.9-0.9h-2.5
									c-0.5,0-0.9,0.4-0.9,0.9V22.6z"/>
							</g>
							<g>
								<path class="st0" d="M88.8,11.9c-0.4-0.5-0.8-0.9-1.5-1.2s-1.3-0.5-2.2-0.5c-0.5,0-0.9,0.1-1.3,0.2
									c-0.4,0.1-0.7,0.3-1.1,0.5c-0.3,0.2-0.6,0.4-0.9,0.7c-0.3,0.3-0.3,0.3-0.3,0.3c-0.2,0.3-0.4,0.5-0.4,0.3c0-0.1,0-0.5,0-0.9
									c0-0.4-0.4-0.7-0.9-0.7H78c-0.5,0-0.9,0.4-0.9,0.9v11.1c0,0.5,0.4,0.9,0.9,0.9h2.5c0.5,0,0.9-0.4,0.9-0.9v-5.2
									c0-0.5,0-1.2,0-1.6c0,0,0,0,0.1-0.3s0.2-0.6,0.4-0.9c0.2-0.3,0.4-0.5,0.7-0.6c0.3-0.2,0.6-0.2,1-0.2c0.4,0,0.7,0.1,0.9,0.2
									s0.5,0.4,0.6,0.6c0.1,0.3,0.2,0.6,0.3,0.9c0.1,0.3,0.1,0.3,0.1,0.3c0,0.4,0,1.1,0,1.6v5.3c0,0.5,0.4,0.9,0.9,0.9H89
									c0.5,0,0.9-0.4,0.9-0.9v-6.2c0-0.5,0-1.3-0.1-1.8c0,0,0-0.4-0.2-1C89.5,13,89.2,12.4,88.8,11.9z"/>
							</g>
							<g>
								<path class="st0" d="M121.9,14.2c-0.4-0.8-0.9-1.6-1.6-2.1c-0.6-0.6-1.4-1-2.3-1.3c-0.9-0.3-1.8-0.5-2.8-0.5
									c-1,0-1.9,0.2-2.8,0.5c-0.9,0.3-1.6,0.7-2.3,1.3c-0.6,0.6-1.2,1.3-1.5,2.1c-0.4,0.8-0.6,1.8-0.6,2.9c0,1,0.2,2,0.6,2.9
									c0.4,0.8,0.9,1.6,1.5,2.2c0.6,0.6,1.4,1.1,2.3,1.4c0.9,0.3,1.8,0.5,2.8,0.5c1,0,1.9-0.2,2.8-0.5c0.6-0.2,0.9-0.4,0.9-0.4
									c0.4-0.3,1.1-0.3,1.5-0.1l1.2,0.6c0.4,0.2,0.8,0,0.8-0.5v-5.5c0-0.5,0-0.9,0-0.9s-0.1-0.4-0.1-0.9
									C122.3,15.8,122.2,14.9,121.9,14.2z M118.2,18.2c-0.1,0.4-0.3,0.7-0.6,1.1c-0.3,0.3-0.6,0.6-0.9,0.7
									c-0.4,0.2-0.8,0.3-1.3,0.3c-0.5,0-0.9-0.1-1.3-0.3c-0.4-0.2-0.7-0.5-0.9-0.7c-0.3-0.3-0.5-0.7-0.6-1.1
									c-0.1-0.4-0.2-0.8-0.2-1.2c0-0.4,0.1-0.8,0.2-1.2c0.1-0.4,0.3-0.7,0.6-1c0.3-0.3,0.6-0.6,0.9-0.7c0.4-0.2,0.8-0.3,1.3-0.3
									c0.5,0,0.9,0.1,1.3,0.3c0.4,0.2,0.7,0.4,0.9,0.7c0.3,0.3,0.5,0.6,0.6,1c0.1,0.4,0.2,0.8,0.2,1.2S118.3,17.8,118.2,18.2z"/>
							</g>
							<g>
								<path class="st0" d="M128.4,8.1c0-0.5-0.4-0.9-0.9-0.9h-2.4c-0.5,0-0.9,0.4-0.9,0.9v1.6c0,0.5,0,1.3,0,1.8v1.4
									c0,0.5,0,1.3,0,1.8v3.7c0,0.5,0,1.3,0.1,1.8c0,0,0,0.5,0.2,1c0.2,0.6,0.4,1,0.7,1.5c0.4,0.4,0.8,0.7,1.4,0.9
									c0.6,0.2,1.3,0.3,2.2,0.3c0.5,0,0.9,0,1.3-0.1c0.5-0.1,0.5-0.1,0.5-0.1c0.4-0.1,0.6-0.6,0.6-1.1l0-1.4
									c0-0.5-0.2-0.8-0.4-0.7c0,0,0,0-0.2,0c-0.2,0-0.5,0.1-0.6,0.1c-0.6,0-1-0.2-1.3-0.5c-0.2-0.3-0.3-0.5-0.3-0.5
									c-0.1-0.5-0.1-1.3-0.1-1.8v-3.2c0-0.5,0.4-0.9,0.9-0.9h1.3c0.5,0,0.9-0.4,0.9-0.9v-1.4c0-0.5-0.4-0.9-0.9-0.9h-1.3
									c-0.5,0-0.9-0.4-0.9-0.9L128.4,8.1L128.4,8.1z"/>
							</g>
							<g>
								<path class="st0" d="M137.9,14.7c0.3-0.3,0.6-0.6,0.9-0.7c0.4-0.2,0.8-0.3,1.2-0.3c0.4,0,0.8,0.1,1.3,0.3
									c0.4,0.2,0.4,0.2,0.4,0.2c0.3,0.3,0.8,0.3,1.1-0.1l1.3-1.5c0.3-0.4,0.3-0.9,0-1.2c0,0,0,0-0.4-0.2c-0.4-0.2-0.7-0.4-1.2-0.6
									s-0.9-0.3-1.3-0.4s-0.9-0.1-1.4-0.1c-1,0-1.9,0.2-2.8,0.5s-1.7,0.8-2.3,1.4c-0.6,0.6-1.2,1.3-1.5,2.1
									c-0.4,0.8-0.6,1.8-0.6,2.9s0.2,2,0.6,2.9c0.4,0.8,0.9,1.6,1.5,2.1c0.6,0.6,1.4,1,2.3,1.4c0.9,0.3,1.8,0.5,2.9,0.5
									c0.9,0,1.9-0.2,2.7-0.5c0.8-0.3,1.4-0.7,1.4-0.7c0.4-0.3,0.5-0.8,0.1-1.2L143,20c-0.3-0.4-0.8-0.4-1.2-0.1c0,0,0,0-0.4,0.2
									c-0.4,0.2-0.8,0.3-1.3,0.3c-0.5,0-0.9-0.1-1.3-0.3c-0.4-0.2-0.7-0.4-0.9-0.7c-0.3-0.3-0.5-0.6-0.6-1
									c-0.1-0.4-0.2-0.8-0.2-1.3c0-0.5,0.1-0.9,0.2-1.3C137.5,15.4,137.7,15,137.9,14.7z"/>
							</g>
							<g>
								<path class="st0" d="M158.9,13.6c-0.2-0.6-0.4-1.2-0.8-1.7c-0.4-0.5-0.8-0.9-1.5-1.2c-0.6-0.3-1.3-0.5-2.2-0.5
									c-0.9,0-1.7,0.2-2.3,0.6c-0.6,0.4-0.8,0.7-0.8,0.7c-0.3,0.4-0.6,0.7-0.6,0.7s0-0.4,0-0.9V4.8c0-0.5-0.4-0.9-0.9-0.9h-2.5
									c-0.5,0-0.9,0.4-0.9,0.9v17.8c0,0.5,0.4,0.9,0.9,0.9h2.5c0.5,0,0.9-0.4,0.9-0.9v-5.2c0-0.5,0.1-1.3,0.1-1.8
									c0,0,0.1-0.6,0.5-1.1c0.4-0.5,1-0.8,1.7-0.8c0.4,0,0.7,0.1,0.9,0.2c0.2,0.2,0.4,0.4,0.6,0.6c0.2,0.3,0.3,0.6,0.3,0.9
									c0.1,0.3,0.1,0.3,0.1,0.3c0,0.4,0,1.1,0,1.6v5.2c0,0.5,0.4,0.9,0.9,0.9h2.5c0.5,0,0.9-0.4,0.9-0.9v-6.2c0-0.5,0-1.3-0.1-1.8
									C159.1,14.6,159.1,14.3,158.9,13.6z"/>
							</g>
						</g>
					</g>
				</g>
			</g>
		</g>
	</g>
	<g>
		<g>
			<g>
				<g>
					<line class="st1" x1="16.2" y1="25.7" x2="16.2" y2="25.7"/>
					<path class="st1" d="M16.2,25.7L16.2,25.7"/>
					<path class="st1" d="M10,27.6c-0.4,0.1-0.9,0.1-1.4,0l0,0c-0.1,0-0.1,0-0.2-0.1c-0.2-0.1-0.4-0.2-0.6-0.4
						c-0.4-0.4-0.6-0.9-0.6-1.5c0-0.6,0.2-1.1,0.6-1.5C8,24.1,8.2,24,8.4,23.9c0.1,0,0.1,0,0.2-0.1l0.7-0.2l6.2-1.8
						c0.3-0.1,0.6-0.3,0.8-0.5c0.1-0.1,0.2-0.3,0.3-0.4c0.1-0.2,0.2-0.4,0.2-0.5c0.1-0.3,0-1,0-1.3c0,0,0.3-0.1,0.6-0.2l6.9-2l0,0
						l0,0c0.2-0.1,0.4-0.2,0.6-0.3l4.5,1.4c1.9,0.6,1.9,3.3,0,3.8l-4.5,1.3l-0.7,0.2l-0.9,0.3l-7,2.1l0,0L10,27.6z"/>
				</g>
			</g>
			<g>
				<g>
					<line class="st1" x1="16.2" y1="13.9" x2="16.2" y2="13.9"/>
					<path class="st1" d="M16.2,13.9L16.2,13.9"/>
					<path class="st1" d="M10,15.9C9.5,16,9,16,8.6,15.9l0,0c-0.1,0-0.1,0-0.2-0.1c-0.2-0.1-0.4-0.2-0.6-0.4
						c-0.4-0.4-0.6-0.9-0.6-1.5c0-0.6,0.2-1.1,0.6-1.5c0.2-0.1,0.4-0.3,0.6-0.4c0.1,0,0.1,0,0.2-0.1l0.7-0.2l6.2-1.8
						c0.3-0.1,0.6-0.3,0.8-0.5c0.1-0.1,0.2-0.3,0.3-0.4c0.1-0.2,0.2-0.4,0.2-0.5c0.1-0.3,0-1,0-1.3c0,0,0.3-0.1,0.6-0.2l6.9-2l0,0
						l0,0c0.2-0.1,0.4-0.2,0.6-0.3l4.5,1.4c1.9,0.6,1.9,3.3,0,3.8l-4.5,1.3l-0.7,0.2l-0.9,0.3l-7,2.1l0,0L10,15.9z"/>
				</g>
			</g>
			<path class="st2" d="M14.4,1.7l-6.6,2C6.7,2.7,7,0.7,8.6,0.2C8.8,0.2,9,0.2,9.2,0.2c0.2,0,0.4,0,0.6,0.1L14.4,1.7z"/>
		</g>
		<g>
			<g>
				<path class="st3" d="M24.6,3.7C24.5,3.8,24.3,4,24.1,4c0,0-0.1,0-0.2,0.1l-0.7,0.2L17,6.1c-0.3,0.1-0.6,0.3-0.8,0.5
					C16.1,6.7,16,6.9,15.9,7c-0.1,0.2-0.2,0.4-0.2,0.5c0,0,0,0,0,0c-0.1,0.3-0.1,0.7,0,1.1c0,0.1,0,0.1,0.1,0.2l-8.3,2.5L3.2,10
					c-1.9-0.6-1.9-3.3,0-3.8l4.4-1.4l0.7-0.2l0.9-0.3l7-2.1l0.9-0.3L18,1.7l4.7-1.4c0.2-0.1,0.4-0.1,0.5-0.1c0.2,0,0.4,0,0.6,0.1
					C25.5,0.7,25.7,2.7,24.6,3.7z"/>
				<line class="st4" x1="16.2" y1="13.9" x2="16.2" y2="13.9"/>
				<path class="st4" d="M16.2,13.9L16.2,13.9 M16.2,13.9L16.2,13.9 M16.2,13.9L16.2,13.9 M16.2,13.9L16.2,13.9 M16.2,13.9
					L16.2,13.9 M16.2,13.9L16.2,13.9 M16.2,13.9L16.2,13.9 M16.2,13.9L16.2,13.9 M16.2,13.9L16.2,13.9 M16.2,13.9L16.2,13.9
					 M16.2,13.9L16.2,13.9 M16.2,13.9L16.2,13.9 M16.2,13.9L16.2,13.9 M16.2,13.9L16.2,13.9 M16.2,13.9L16.2,13.9 M16.2,13.9
					L16.2,13.9 M16.2,13.9L16.2,13.9 M16.2,13.9L16.2,13.9 M16.2,13.9L16.2,13.9 M16.2,13.9L16.2,13.9"/>
			</g>
			<path class="st3" d="M18,26.4l6.6-2c1.1,1,0.8,2.9-0.8,3.4c-0.2,0.1-0.4,0.1-0.6,0.1c-0.2,0-0.4,0-0.6-0.1L18,26.4z"/>
			<g>
				<path class="st3" d="M24.6,15.4c-0.2,0.1-0.4,0.3-0.6,0.4c0,0-0.1,0-0.2,0.1l-0.7,0.2L17,17.9c-0.3,0.1-0.6,0.3-0.8,0.5
					c-0.1,0.1-0.2,0.3-0.3,0.4c-0.1,0.2-0.2,0.4-0.2,0.5c0,0,0,0,0,0c-0.1,0.3-0.1,0.7,0,1.1c0,0.1,0,0.1,0.1,0.2l-8.3,2.5l-4.3-1.3
					c-1.9-0.6-1.9-3.3,0-3.8l4.4-1.4l0.7-0.2l0.9-0.3l7-2.1l0.9-0.3l0.9-0.3l4.7-1.4c0.2-0.1,0.4-0.1,0.5-0.1c0.2,0,0.4,0,0.6,0.1
					C25.5,12.5,25.7,14.5,24.6,15.4z"/>
				<line class="st4" x1="16.2" y1="25.7" x2="16.2" y2="25.7"/>
				<path class="st4" d="M16.2,25.7L16.2,25.7 M16.2,25.7L16.2,25.7 M16.2,25.7L16.2,25.7 M16.2,25.7L16.2,25.7 M16.2,25.7
					L16.2,25.7 M16.2,25.7L16.2,25.7 M16.2,25.7L16.2,25.7 M16.2,25.7L16.2,25.7 M16.2,25.7L16.2,25.7 M16.2,25.7L16.2,25.7
					 M16.2,25.7L16.2,25.7 M16.2,25.7L16.2,25.7 M16.2,25.7L16.2,25.7 M16.2,25.7L16.2,25.7 M16.2,25.7L16.2,25.7 M16.2,25.7
					L16.2,25.7 M16.2,25.7L16.2,25.7 M16.2,25.7L16.2,25.7 M16.2,25.7L16.2,25.7 M16.2,25.7L16.2,25.7"/>
			</g>
		</g>
	</g>
</g>
</svg>
